<?xml version="1.0" encoding="utf-8"?>
<!-- Generator: Adobe Illustrator 22.0.1, SVG Export Plug-In . SVG Version: 6.00 Build 0)  -->
<svg version="1.1" xmlns="http://www.w3.org/2000/svg" xmlns:xlink="http://www.w3.org/1999/xlink" x="0px" y="0px"
	 viewBox="0 0 400 400" style="enable-background:new 0 0 400 400;" xml:space="preserve">
<style type="text/css">
	.st0{fill:none;stroke:#000000;stroke-width:2;stroke-miterlimit:10;}
	.st1{display:none;fill:none;stroke:#000000;stroke-width:2;stroke-miterlimit:10;}
	.st2{fill:none;}
</style>
<g id="Layer_1">
	<path id="Acidial_Plantia" class="st0" d="M91.3,118.3c5.9,2.4,13.1,3.6,18.2-0.3c1.4-1,2.5-2.4,4-3.2c4.3-2.4,9.5,0.4,13.9,2.5
		c16.5,7.8,35.8,5.8,53.5,1.5c5.3-1.3,10.7-2.8,16.1-2.3c8.6,0.7,16.2,6.1,24.6,8.1c10.4,2.4,21.2-0.5,31.9-0.3
		c14.1,0.3,27.7,6.1,41.8,5.3c13.5-0.7,26-7.5,39.3-10.1c9-1.7,18.4-1.6,27.3,0.6c3.3,0.8,6.7,1.9,9.2,4.2c2.9,2.6,4.5,6.5,5.1,10.3
		c1.7,10.1-2.3,21.1-10.5,27.3c-8.2,6.1-20.3,6.7-28.8,1c-0.4,10.5-13.7,18.2-23,13.2c-3.2,1.3-2,6.2,0.3,8.7
		c2.3,2.5,5.5,5.3,4.7,8.6c-0.8,3.6-5.5,4.5-9.1,5.3c-6.8,1.6-12.8,5.6-19.3,8.3c-6.5,2.7-14.4,3.9-20.1-0.1c0.5-4-1.5-1.2-5.5-0.7
		s-5.1-2.8-3.7,1.1c0.6,1.5-2.1,4.2-1.9,5.8c0.2,1.9-1.1,3.6-2.4,5.1c-6.9,7.8-15.7,13.8-25.5,17.3c-2.1,0.8-4.4,1.4-6,3
		c-3.1,2.9-3.1,7.7-4.6,11.7c-1.4,4-6.8,7.4-9.6,4.3c-0.4,8.3-5.7,16.2-13.2,19.7c-0.4-5.1-0.7-10.2-1.1-15.2
		c-4.8-4-11.4,1.7-15,6.8c-4.9,7.1-9.8,14.3-14.8,21.4c-0.8-1.9-1.5-3.8-2.3-5.7c-4.6,1.8-10.1-3.3-8.6-8
		c-6.8,3.1-25.7-2.9-32.5-6.1c6-3.7,20-5.9,22.1-12.6c0.7-2.4,2.9-5.9,2.2-8.3c-0.5-1.7-1.5-3.2-2.4-4.8c-2.1-3.5-4-7.2-5.5-11
		c-4.3-10.9-6-22.7-9.9-33.8c-1.1-3-2.4-6.1-4.7-8.4c-2.4-2.4-5.7-3.8-8.8-5.1c-4.4-1.8-8.9-3.6-13.3-5.4c-2.4-1-4.9-2-7.5-2.2
		c-6.3-0.5-11.9,3.5-17.7,5.9c-5.8,2.4-14.1,2.3-16.7-3.5c-1-2.2-1-5-2.8-6.7c-1.4-1.3-3.7-1.7-4.5-3.5c-0.8-1.6,0.1-3.5-0.1-5.3
		c-0.4-4.8-6.7-6-11.4-7.4c-5.2-1.5-19.6-9.5-19.6-15.8c-0.1-5.8,11.9-11.5,16.5-13.8c7.1-3.5,14.5-7.3,21.8-10.3
		C73.1,110.6,80.4,113.9,91.3,118.3z"/>
	<path id="Planum_Borrium" class="st1" d="M13.3,185c2.3,6.6,6.1,13.8,11,14.1s9.9-1.4,14.9-0.8c7.6,0.9,14.6,7.1,22.3,8.2
		c8.4,1.2,16.6-3.8,25-5.4c18.3-3.6,36.2,8.5,54.7,9c23.6,0.6,30.3-13.4,52.6,0.7c2.4,1.5,4.7,3.4,7.2,4c4,1,8-1.5,11.9-3.3
		c28.9-13.5,61.4,7.2,90-7.7c4.8-2.5,9.7-6,14.7-4.9c2.4,0.6,4.7,2.2,7.1,3.1c4.1,1.5,8.4,0.6,12.6-0.3c18.3-3.9,34.8-8.3,49.4-12.6
		c-3.9-0.1-6.3-1.7-10.3-1.7L13.3,185z"/>
	<path id="Temppa_Terra" class="st1" d="M201.3,101.1c-6.2-5.3-16-2.1-22.1,3.3c-6.1,5.3-10.7,12.6-17.7,16.6
		c-19.1,10.8-48.1-6.3-63.2,9.6c-8.6,9-6.9,23.4-10.4,35.4c-5.6,19.4-25.4,33.2-27.8,53.3c-2.9,23.5,20.5,43.1,43.8,47.2
		c10.7,1.9,21.7,1.6,32,5c15.7,5.1,27.6,17.7,40.3,28.3s28.9,19.8,45,16.2c14.7-3.3,25.1-16.6,30.7-30.6
		c5.6-13.9,7.7-29.1,12.8-43.2c1.5-4,3.3-8.1,6.5-11c5-4.5,12.3-5.1,18.1-8.3c14.9-8.4,15-29.8,24-44.3
		c9.2-14.8,29.2-25.9,26.5-43.2c-16.5-9.7-36.4,15.6-54.4,9.2c-7.4-2.6-11.9-9.9-15.9-16.6C260.7,113,211.5,54.5,201.3,101.1z"/>
	<path id="Chryse_Plantia" class="st1" d="M346.7,213.4c2.4,5.4,1.3,12.3-2.7,16.6c-1.5,1.6-3.4,2.9-4.9,4.6
		c-3,3.3-4.4,7.7-5.7,11.9c-1.9,6.2-3.7,12.3-5.6,18.5c-0.7,2.3-1.4,4.6-3.1,6.3c-1.8,1.7-4.3,2.4-6.6,3.4
		c-6.1,2.7-10.7,8.4-11.9,15c2.6,7.4,5.3,14.8,7.9,22.2c-4.1,0.2-8.3-1-11.8-3.3c-2.3,14.8-1.4,30.1,2.6,44.6
		c0.4,1.5,0.9,3.1,0.5,4.7c-1.2,4.6-8.5,3.9-11.5,0.2c-3-3.7-3.7-8.8-6.4-12.7c-2-2.9-5-5-7.5-7.6c-9.1-9.7-9-24.5-11.7-37.6
		c-2.5-11.8-7.7-22.9-12.8-33.9c-2.7-5.8-8.4-12.7-14.1-9.7c0.9,2.7-1.8,5.2-4.1,6.8c-6.6,4.6-13.3,9.2-19.9,13.8
		c-3.6,2.5-7.7,6.2-6.7,10.4c-8.5-1.5-17.3-1-25.6,1.4c-0.2,6-0.5,12.1-0.7,18.1c0,1.2-0.1,2.5-0.7,3.6c-0.7,1.3-2.1,2.2-3.3,3.1
		c-6.6,5.5-6.7,15.3-8.9,23.6c-1.9,7.2-6.1,14.1-12.2,18.3c-1.3,0.9-2.8,1.7-4.3,1.7c-5.3-0.1-6-7.6-5.2-12.8
		c2.6-16,3.2-32.4,1.9-48.5c-0.5-5.7-0.8-12.3,3.3-16.3c2.2-2.1,5.2-3,7.9-4.4c9.7-5,14.4-16.1,18.4-26.2
		c-8.6-2.3-17.7-3.2-26.6-2.7c-1.9,0.1-3.9,0.3-5.6,1.2c-1.7,0.8-3,2.2-4.5,3.3c-4.3,2.8-9.8,2.2-14.9,2.7
		c-10.6,0.9-20.2,6.5-29.4,12c-1.5,0.9-3.2,1.9-4,3.5c-1,1.9-0.7,4.4-1.9,6.2c-2,2.7-6.8,2.2-8.4,5.1c-0.7,1.3-0.6,2.8-0.5,4.3
		c0.9,10.2,1.9,20.4,2.8,30.6c-5.5-1.7-7.5-8.1-9.5-13.5c-2-5.3-6.6-11.3-12.1-9.7c-0.5,4.2-1.1,8.8-4.2,11.7
		c-3.1,2.9-9.3,2.4-10.3-1.7c-0.6-2.6,1.1-5.1,2.5-7.4c5.7-9.1,7.5-20.7,4.8-31.1c-0.9-3.4-2.2-7-1.3-10.4c1-3.8,4.5-6.3,7.8-8.5
		c7.7-5.2,15.3-10.7,22-17.1c5.5-5.2,10.3-11,15.1-16.8c2.4-2.9,4.8-5.7,6.7-8.9c3.8-6.2,5.6-13.2,7.5-20.2
		c2.1-8.1,4.3-16.2,6.4-24.3c2.7-10,6.4-21.4,16-25.3c5-2,10.9-1.7,15.4-4.7c7.6-5.1,7.1-16.6,12.7-23.8c1.5-1.9,0.7-6.3,1.7-8.5
		c4.8-10.1,13.4-17.8,20.7-26.2s14-18.6,13.4-29.8c12.3,3.6,24.2,8.5,35.6,14.3c3.5,1.8,6.9,3.7,9.9,6.2c8,6.7,12.1,17,15.2,27
		c7.8,24.6,12.3,50.5,24.5,73.3c1.9,3.6,4,7.2,4.5,11.2c0.3,3.1-0.3,6.2-1.2,9.2c-3.5,11.5-10.8,21.9-20.5,29
		c5.2,4.1,10.6,8.3,16.9,10.5s13.7,2.2,19.1-1.7c-0.2,7.8,7.7,14.7,15.4,13.6c0.9,3.8,2.9,7.3,5.7,9.9
		C334.9,232.2,340.6,222.9,346.7,213.4z"/>
	<path id="Lunae_Planum" class="st1" d="M136.6,243c-6.7-10.8-5.2-24.8-1.1-36.8c4.2-12,10.7-23.1,14-35.4c1.3-4.8,2-9.7,3.1-14.6
		c1.2-5.3,2.9-10.4,4.5-15.5c1.8-5.5,3.5-11,5.3-16.5c9.6-29.9,19.2-59.7,29.5-89.3c11.2,8.3,22.6,16.2,34.3,23.9
		c12.6,8.3,29.6,16.3,41.7,7.3c-3.9,6.7-8.2,13.7-15,17.5c-3.4,1.9-7.5,3-9.9,6c-2.2,2.6-2.7,6.2-3.1,9.6c-1.4,11-2.7,22-4.1,32.9
		c-0.2,1.8-0.4,3.7,0.7,5.1s3.9,1.4,4.2-0.4c-1.9-5.4,2.9-12,8.7-11.7c0.6,5,1.2,10.3,3.9,14.6c2.7,4.3,8,7.4,12.8,5.9
		c-2.5,30.8-5.2,62.3-17.1,90.8c-4.3,10.3-10,21.1-7.8,32.2c2.7,13.7,16.8,27,9.7,39c-1.7,2.8-4.3,4.8-6.8,6.8
		c-16.8,13-33.5,26-50.3,39c-6,4.7-12.4,9.5-19.9,10.9c-18.7,3.5-34.9-17.5-33-36.4c1.7-17.1,13-31,16.6-47.5
		C162.4,257.3,147,259.8,136.6,243z"/>
	<path id="Xanthe_Terra" class="st1" d="M242,108.3c1.4,2,2.8,4.1,4.6,5.7c1.5,1.3,9.4,0.2,11.2,1.2c9.3,5.2,11.9,13.6,19.6,21
		c6.9,6.5,13,13.8,18.4,21.7c3.1,4.5,6.2,9.6,11.4,11.4c5,1.8,12.1-1.9,11.3-7.1c0-0.1,0.1-0.3,0.2-0.3c4,0.4,5.5,5.8,5.2,10
		c-0.3,4.3-1.1,9.3,2,12.2c3.2,3,8.2,1.6,12.6,1.4c8.7-0.4,17.4,5.3,20.5,13.5c3.1,8,1,17.2,3.6,25.4c2.4,7.9,9,14.9,8,23.2
		c-1.6,13.8-22.6,18.8-23.7,32.6c-0.2,2.6,0.3,5.4-0.8,7.8c-2.6,5.1-10.4,3.8-15.1,7.2c-2.6,1.9-3.9,5-5.9,7.5
		c-4.5,5.5-12,7.3-18.9,8.5c-30.5,5.3-61.5,7-92.4,5.2c-3.6-0.2-7.3-0.5-10.8,0.6c-3.3,1-6,3.2-8.8,5.1
		c-19.9,14.2-43.9,22.5-68.3,23.7c-10.2,0.5-21.9-1-27.5-9.6c-4.1-6.1-3.9-14.4-8.2-20.4c-3.7-5.1-10.1-7.5-13.9-12.5
		c-7.4-9.5-4-26.2-14.4-32.3c-3.5-2.1-8-2.3-11.2-4.8c-3-2.3-4.3-6.1-5.6-9.7c-4.2-12.6-8.5-25.2-12.7-37.8c-1.5-4.5-3-9.1-2.9-13.9
		c0.2-5.4,2.6-10.5,4.7-15.5C45.8,161.4,50,130.4,46,100.4c-0.6-4.8-1.5-9.8-0.5-14.6C48,74.6,59.6,68.2,70.4,64.3
		c15-5.4,30.6-8.8,46.4-10.2c0.1,0,0.2,0.1,0.2,0.2c2.2,6.8,15.1,18.6,9.7,23.3c-17.2,15.2-25.5,28.8-22.8,51.8c0,0,0.1,0,0.1,0
		c2.9,0.5,5.8-1.2,6.6-4.1l11.5-40.2c0.1-0.1,0.2-0.2,0.3-0.1c6.8,5.1,16.6,0.5,22.7-5.4c6.1-6,11.5-13.7,19.7-15.8
		c0.1,0,0.2,0,0.3,0.1c12.4,24,18,51.8,34.1,73.5c2.3,3.1,6.1,6.4,9.6,4.8c0.1,0,0.1-0.1,0.1-0.2c-1.5-13.1-3.1-26.2-4.8-39.4
		c0-0.1,0.1-0.2,0.2-0.2l7.4-0.4c0.2,0,0.3-0.3,0.1-0.4c-4.5-3-7.5-25,5.7-23.8C227.7,78.7,237,100.9,242,108.3z"/>
	<path id="Margatifier_Terrot" class="st1" d="M115.3,78.2c4-5.9,8-11.8,12-17.7c3.9,1,7.6-2.4,9.6-5.9c2-3.5,3.4-7.6,6.8-9.9
		c6-4.2,14.6,0.2,18.5,6.4s5.1,13.7,8.4,20.2c3.7,7.3,10.3,13.1,18.1,15.9c0.9,17.9,13.5,32.7,22.1,48.5
		c8.1,14.9,12.9,31.4,20.1,46.8c3.2,6.9,7.6,14,14.7,16.7c10,3.7,22.1-2.9,31.5,2.1c4.8,2.6,7.6,7.6,10.1,12.5
		c12.7,24.8,21.9,51.4,27.2,78.7c1,5.2,1.9,10.4,1.3,15.7c-1.1,9.3-7.2,17.8-15.7,21.8c-3.3,1.6-7.1,2.6-9.5,5.4
		c-4.7,5.7-1.4,15.9-7.4,20.2c-3.7,2.6-8.7,1.3-13-0.1c-14.5-4.8-28.9-9.6-43.4-14.3c-2.5-0.8-5.1-1.7-7.1-3.5c-1.9-1.6-3-3.9-4.2-6
		c-9.2-17.7-18.5-35.6-23.3-54.9c-1.6-6.4-2.6-13.5,0.2-19.5c1.1-2.3,2.8-4.4,3.6-6.8c3-8.4-4.2-16.8-5.1-25.7
		c-0.4-3.7,0.3-7.4,0-11.1c-0.8-9.8-9.6-18.4-19.5-18.9c-2.6-0.1-5.5,0.2-7.5-1.5c-3.8-3.1-1.8-10.8-6.3-12.7
		c-2.6-1.1-4.7,3.5-7.5,4.1c-5,1-10.5-5.2-13.4-9.3c-3-4.1-4.7-9-7.5-13.2c-12.7-18.5-39.2-26.7-44.7-51.1
		c-3.5-15.7,11.1-47.5,28.2-49C114.7,67,115.1,72.9,115.3,78.2z"/>
	<path id="Arabia_Terror" class="st1" d="M109.7,261.4c-0.8-1.9-1.6-3.9-3.1-5.4c-1.1-1.1-2.5-1.8-3.8-2.6
		c-11.7-7.2-15.9-21.6-22.1-33.8c-6.2-12.2-18.9-24.3-31.8-19.9c11.9-2.9,24.3-6.1,33.9-13.7c9.6-7.6,15.8-21.1,11.1-32.5
		c8.7-0.7,15.3,8,23.7,10.3c6.9,1.9,14-0.7,20.7-3.3c9.6-3.7,19.1-7.3,28.7-11c3.1-1.2,6.7-3.1,6.7-6.5c-0.1-2.5-2.3-4.3-4-6.1
		c-3.8-4-6-9.5-5.9-15c8.8,0,17.6,0,26.3,0c-0.4-3.9-0.8-8.1,0.6-11.8s5-6.9,9-6.4c3.6,0.5,6.1,3.8,9.2,5.7
		c10.5,6.4,23-4.2,35.2-5.3c6-0.6,12.6,1.1,17.7-2.2c3.4-2.2,5.2-6,7.6-9.3c7.5-10.1,20.8-13.9,33.3-15.3
		c12.5-1.3,25.4-0.9,37.3-5.1c5.5,13.8-1.6,30.2,3.7,44.1c2.7,7.1,8.7,13.7,7.3,21.2c-0.6,3.3-2.7,6.2-4.7,9
		c-5.4,7.2-11.1,14.3-17.9,20.3c-7.2,6.3-15.3,11.4-23.5,16.4c-5.8,3.6-11.7,7.2-17.5,10.8c-16.1,10-32.3,20-49.8,27.3
		c-2.2,0.9-4.4,1.8-6.3,3.2c-2.5,1.8-4.2,4.5-5.9,7c-10.8,16-22.5,31.4-35,46.1c-2.7,3.1-5.4,6.2-8.6,8.9c-3.4,2.9-7.3,5.1-10.9,7.7
		c-13.1,9.2-19.1,21.8-28.5,33.5C127.2,311,118,282.2,109.7,261.4z"/>
	<path id="Aracadia_Plantia" class="st1" d="M146.4,54.5h120.3v264.2c-2.7,6.4-4,14.5-3.5,21.4c-4.6,2.5-9.4,5.1-14.6,5.4
		c-5.2,0.4-11-2.1-12.8-7c-2.6-7.1,4-15.6,0.7-22.4c-6.4-5.6-17.3,6.2-24.3,1.4c-1.6-1.1-2.6-2.9-3.8-4.6c-7-9.8-20.3-13-28.7-21.6
		c-12.5-12.8-11.4-34.1-22.4-48.3c-3.6-4.6-8.3-8.3-11.9-13c-3.5-4.7-5.8-11.1-3.4-16.4c11.8,3.2,24.1,4.8,36.4,4.8
		c1.6,0,3.3,0,4.6-0.9c1.4-0.9,2.2-2.5,2.7-4c4.6-14.3-7.9-30.3-2.2-44.3c1.4-3.4,3.9-6.6,3.8-10.3c0-2.6-1.4-5-2.7-7.3
		c-9.6-15.9-22.8-29.6-38.2-40c-4.6-3.1-9.8-6.3-11.9-11.5C128.7,86.6,149,68.9,146.4,54.5z"/>
	<path id="Utopia_Plantia" class="st1" d="M171.5,106.3c-8.2,0-16.8-2.8-24.3,0.4c-6.8,3-10.8,10.4-11.7,17.7
		c-0.9,7.3,0.6,14.7,1.9,21.9c0.4,2.2,0.7,4.4,0.3,6.6c-0.5,2.4-1.9,4.4-3.4,6.3c-8.3,11-18.7,20.5-30.4,27.9
		c-1.9,1.2-4.1,2.6-4.4,4.8c-0.3,2.1,1.1,4.1,2.5,5.8c8.6,10.3,17.6,21,29.7,26.9c3.5,1.7,7.3,3,10.4,5.3
		c5.2,3.7,8.9,10.1,15.2,11.5c2.8,0.6,5.8,0.2,8.3,1.4c8.8,4,2.8,19.5,10.2,25.6c2.9,2.4,7,2.6,10.5,4.1
		c10.2,4.4,11.8,18.2,19.4,26.3c8.8,9.3,23.5,9.3,36.3,8.6c11-0.6,22.1-1.2,33.1-1.9c-6.7-18.4-13.8-37.5-27.4-51.7
		c-2.6-2.7-5.4-5.3-7.1-8.7c-1.6-3.4-1.7-7.8,1-10.4c3.9-3.7,10.3-1.6,15.4,0.2c12.4,4.3,26.2,4.8,38.9,1.5
		c3.9-12.7,4.4-26.5,1.2-39.5c-1.1-4.7-2.7-9.4-2.3-14.2c0.7-7.3,6-13.8,5.5-21.1c-0.3-3.8-2.1-7.3-4-10.6
		c-13-22.3-32.1-41.6-54.7-54.5C217.3,82.6,196.7,106.4,171.5,106.3z"/>
	<path id="Iidis_Plantia" class="st1" d="M176.1,99.6c11,0,22.3,0,32.7,3.9c14,5.2,25.9,17.2,40.9,17.3c2.9,0,6-0.4,8.6,1
		c7.6,4.2,1.3,15.9,3,24.5c2,9.8,14,13,21.6,19.5c12.3,10.6,11.9,29.5,10.6,45.7c-0.6,6.8-1.5,14.4-6.8,18.8
		c-2.9,2.4-6.6,3.4-9.7,5.5c-3.7,2.6-6.2,6.6-8.5,10.5c-6.5,11-13,21.9-19.5,32.9c-4.1,6.9-8.5,14.1-15.3,18.3
		c-14,8.7-32.8,1.5-45.1-9.5s-21.1-25.7-34.2-35.7c-11.8-9-27.2-14.4-34.9-27.1c-12.2-20.2,1.2-47.7-8.2-69.2
		c-2-4.7-5.1-9.1-5.2-14.2c0-9.5,10.1-15.2,18.7-19.2c10.7-5,11.8-16.3,19.3-21.1C151.5,96.5,167.1,99.6,176.1,99.6z"/>
	<path id="Sabea_Terror" class="st1" d="M222.4,336.1c1.1-6.7,2.1-13.3,3.2-20c8.5-4.7,14.3-13,20.8-20.2c12-13.4,27.1-23.6,42-33.7
		c12.9-8.8,25.8-17.6,38.8-26.4c2.2-12.2,4.4-24.7,1.8-36.8c-2.5-12.1-11-23.8-23.1-26.4c-2.3-9.2,0.3-19.5,6.7-26.5
		c-6.3-12-17.2-21.4-29.8-26.1c0-25.7-3.2-51.4-9.4-76.4c-27.9,19.3-56.9,36.8-86.9,52.7c-5.7,3-11.6,6.1-15.4,11.2
		c-3,4-4.5,8.9-6.5,13.6c-17.4,41.7-67.8,60.3-90.7,99.2c-1.9,3.3-3.7,6.8-3.9,10.6c-0.2,3.8,1.1,7.6,2.4,11.2
		c5.1,14.1,10.1,28.2,15.2,42.3c3.7,10.3,7.9,21.3,16.8,27.8c25.9,18.8,60.2-11.1,77.8,21.9c4.5,8.4,6.3,17.2,15.8,21.1
		C211.4,360.5,222.4,349.7,222.4,336.1z"/>
	<path id="Simmeria_Terror" class="st1" d="M193.6,266.8c-11.4-1-22.7-5.8-34-3.9c-6.3,1-12,4.1-17.6,7.1
		c-9.2,4.9-18.3,9.9-27.4,14.9c-2.7,1.5-5.4,3-8.1,4.4c-7.3,4-15.9,11.4-12.2,18.9c-10.7-0.5-21.4-1.1-32.1-1.6
		c-5.8-0.3-12.2-0.8-16.2-5c-3.8-4-4.2-10-4.5-15.4c-0.5-10.9-1-21.9-1.5-32.8c-0.1-2.1-0.2-4.3,0.5-6.3c0.9-2.6,3-4.7,4.7-6.8
		c10.8-13.3,9.5-33,18.7-47.4c12.4-3.6,24.7-7.2,37.1-10.7c3-0.9,6.1-1.8,9.2-2c12.5-0.8,23,8.7,35.1,12c15.1,4.1,31-1.8,45.5-7.7
		c8.1-3.3,16.5-6.8,22-13.5c6.5-7.9,9-20.1,18.6-23.5c2.8-1,5.9-1.1,8.7-2.1c18.9-6.7,7.6-42.2,25.5-51.3c6.6-3.4,14.6-1.4,21.7,0.6
		c9.3,2.6,18.5,5.3,27.8,7.9c11,3.1,24.6,9.9,23.1,21.3c-4.2,1.8-8.5,3.6-12.7,5.4c8.7,7.7,17.5,15.5,26.2,23.2
		c3,2.7,6.2,5.6,7.4,9.4c2.6,8-4.1,16.1-11.4,20.3s-15.8,6.9-21.1,13.5c-19,23.6,30,80.8-20.3,78.5c-17.2-0.8-33-8.4-49.7-11.4
		C235.5,258.8,215,268.6,193.6,266.8z"/>
	<path id="Elysium_Plantia" class="st1" d="M274.6,279.7c-6,0.6-12.3,1.3-17.8-1.1s-9.8-8.9-7.6-14.5c1.2-3,3.9-5.1,5.8-7.7
		c4.1-5.4,4.5-12.7,4.8-19.5c1.2-26.3,1.8-54.7-12.8-76.6c-5.5-8.2-13.1-15.5-15.6-25.1c-0.8-3.3-1.1-6.8-2.8-9.7
		c-2.9-4.8-8.8-6.5-13.6-9.3c-11.5-6.8-16.7-22.5-11.7-34.8c-8.8-1.6-15.1,8.6-16.7,17.4c-1.5,8.8-1.7,19.1-8.6,24.8
		c-2.8,2.3-6.4,3.5-9.2,5.7c-11.6,9.1-5.8,29.6-16,40.3c-3.5,3.7-9.2,7.6-7.4,12.4c2.4,6.1,14.9,4.8,14.5,11.3
		c-3.1,6.5-10.9,8.7-17.5,11.4s-13.7,8.6-12,15.6c2.8,11.1,24.5,11.3,23.2,22.7c-1.2,10.8-20.2,6.9-26.6,15.7
		c-4.7,6.4,0.7,16,8.2,18.6c7.5,2.6,15.6,0.3,23.2-1.9c-1.3,4.7-2.5,9.4-3.8,14.1c9.6-1.9,20.1,1.4,26.7,8.6c3.2,3.4,5.5,7.5,8.6,11
		c7.5,8.3,19.9,11.7,30.6,8.5c0.8-10.7,12.8-19,23.1-16c-0.3,2.4,0.7,5,2.5,6.6c5.5-9.6,13.9-5.2,20.2-9.9
		C268.5,296.7,275.2,279.6,274.6,279.7z"/>
	<path id="Hesparia_Planum" class="st1" d="M115.9,279.5c-2.1,3.8-3.3,8.4-6.7,11.1c-3.4,2.7-8,2.7-12.3,2.6
		c-12.2-0.2-24.3-0.4-36.5-0.6c-2.4,0-5-0.2-6.7-1.9c-1.8-1.8-1.9-4.7-1.6-7.2c3-25.3,28.3-41.1,51.5-51.3
		c15-6.6,30.7-12.8,42.7-24.1c5.7-5.3,10.6-12.3,10.6-20.1c0-7.8-6.8-15.8-14.4-14.6c0.4-9.2-3.7-17.9-7.3-26.4
		c-3.6-8.5-6.7-17.8-4.4-26.7c2.3-8.9,12.2-16.3,20.6-12.6c1.5,12,7.1,27.5,19,26.3c6.5-0.6,11.1-6.4,15.7-10.9
		c9.1-9,21.2-14.8,33.9-16.4c-2.5,7.9,13,5.9,20.5,9.1c7.6,3.2,6.7,13.1,14.9,12.4c-0.2,3.7,10.9-4.6,10.7-0.9
		c4.8,0.1-1.7,12.3,3.1,12.5c10.8,17.1,24.2-4.5,43.7,0.8c3.8,1,16.1,5.6,19.4,3.5c4.4-2.8,8.3,4.6,10.6,0c2.3-4.6,2.5,9.6,4.3,14.5
		c1,10.8,2,21.9-0.9,32.4c-2.9,10.5-10.4,20.3-20.9,22.7c-3.4,0.8-7,0.8-10.1,2.4c-5.7,3-7.4,10.3-10.2,16.1
		c-10,21.2-36.5,27.3-59.6,30.9c-6.6,1-13.3,2-19.8,0.6c-13-2.8-22.6-14.8-35.6-17.6c-12.4-2.6-24.8,3.6-35.9,9.7
		C143,261.9,122.3,268.2,115.9,279.5z"/>
	<path id="Pramothi_Terra" class="st1" d="M28,221h327.9c2.6-3.7,3.5-8.6,4.1-13.1c4-0.2,8-0.4,12-0.5
		c-12.9-2.8-23.1-15.2-23.4-28.4c-4.3,6.2-11.8,10.1-19.4,9.8c-7.4-0.3-14.4-4.2-21.9-4.4c5.4,3.9,11.4,7.2,17.6,9.7
		c-6.5,0.4-12.9,0.8-19.4,1.2c-0.7,0-1.5,0.1-2.2-0.3c-0.8-0.5-1.1-1.4-1.6-2.2c-2.1-3.2-6.7-3.1-10.4-2.6c-1.2,0.2-2.6,0.4-3.2,1.5
		c-1.7,3.1,5.6,5.8,4,8.9c-3.7,0.9-7.6,1.9-11.3,1.1c-3.8-0.7-7.4-3.6-7.7-7.4c-6.7-0.5-13.5-0.3-20.1,0.7c-3.2,0.5-7.4,2.9-6,5.8
		c3.3,1.8,7.1,2.6,10.9,2.2c-10,5-21.8,0.9-32.9-0.3c-5.8-0.6-11.7-0.3-17.6-0.3c-14.1,0.1-28.2-1.3-42-4.1c2.2-0.6,4.4-1.2,6.6-1.8
		c-6.7-10.1-20.1-12.8-32-14.6c3.4,4.5,7.8,8.4,12.7,11.2c-2.5,2.5-6.8,1.6-9.9-0.1c-3.1-1.7-6.1-4.2-9.6-4.3
		c-6.6-0.1-10.9,7.9-17.4,8.9c-2.9,0.5-5.7-0.5-8.5-1.4c-4.8-1.6-9.6-3.2-14.4-4.9c-4.7-1.6-9.7-3.2-14.4-1.6
		c-4.7,1.5-8,7.7-4.9,11.5c-2.8,3.9-9.5,4.1-12.6,0.4c2.5,2-0.6,6.1-3.8,6.4c-3.2,0.2-6.3-1.3-9.5-0.7c-2.1,0.4-3.8,1.7-5.5,2.9
		C37.6,213.9,32.7,217.5,28,221z"/>
	<path id="Tyrhenna_Terrot" class="st1" d="M78.1,198.7c-0.7-2.7-1.3-5.6-0.3-8.2c1-2.6,3.9-4.6,6.5-3.7c1.4,0.5,2.4,1.7,3.6,2.5
		c3.6,2.4,8.4,1.2,12.5,0c6.9-2.1,14.4-4.7,17.9-10.9c1.4-2.4,2-5.1,3.8-7.2c7.5-9,25,2,33.2-6.4c1.6-1.6,2.6-3.8,4.5-4.9
		c2.9-1.8,6.8-0.5,10.1-1.2c4.4-1,7.3-5.4,8.1-9.8c0.9-4.4,0.2-8.9,0-13.4c-0.2-5.6,0.3-11.3,1.7-16.7c1.2-4.9,4.5-10.7,9.5-10.1
		c2.2,0.2,4.1,1.7,5.7,3.2c5,4.6,9.1,10.2,11.9,16.4c2.7,5.9,4.3,12.3,7.6,17.9c3.3,5.6,9.1,10.4,15.6,9.9c-0.6,4.7-1.1,9.5,0.2,14
		c1.3,4.5,5,8.6,9.7,9c2.2,0.1,4.7-0.5,6.5,0.9c1.4,1,1.7,2.9,2.2,4.5c2.4,7.6,10.8,13.1,18.5,11c12.9-3.5,16.6-23.9,29.9-24.9
		c6.6,0.2,5.2,11.6,10.6,15.3c1.7,1.2,3.9,1.4,5.8,2.2c5,2.2,6.9,8.2,8.3,13.5c0.6,2.3,1.2,4.7,0.5,6.9c-1.1,3.7-5.3,5.8-9.2,5.6
		s-7.4-2-10.9-3.8c-1.6,2.2-1.9,5.4-0.8,7.9c-4.3-1.1-9.3-1.4-13,1.2s-4.7,8.9-1,11.4c2.5,1.7,5.9,1.1,8.8,0.3
		c2.9-0.8,6.1-1.8,8.9-0.5c2.8,1.2,4,5.7,1.4,7.2c-1,0.6-2.4,0.5-3.3,1.3c-1,0.9-1,2.5-1.1,3.8c-0.4,9.8-8.2,17.9-9.3,27.6
		c-0.8,7,2.2,14.3,7.7,18.7c-6.5,2.5-13.6-0.8-20.4-2.2c-8.1-1.6-16.5-0.6-24.7,0.3c-26.5,2.8-53.2,3.3-79.8,3.8
		c-6.4,0.1-12.9,0.2-19.2-1.2c-7.3-1.7-14-5.4-21-8.1c-9.4-3.6-19.4-5.5-29.5-5.5c5.2-3.1,11.3-4.7,17.4-4.5
		c-1.9,0-12.7-14.7-15.2-16.7c-4.4-3.7-14.7-7.3-17.7-11.8c-3-4.7-1.7-14.7-3.5-20.5C84.5,214.6,80.4,207,78.1,198.7z"/>
	<path id="Dedalia_Planum" class="st1" d="M115.4,103.2c1.4-2,4.6-0.8,6.4,0.9c1.7,1.7,3.5,4,5.9,4c3.2-0.1,4.7-4.3,7.7-5.6
		c4.1-1.8,8,2.5,12,4.6c3.7,1.9,8,1.9,12.1,1.8c2.2,0,4.6-0.1,6.3-1.4c1.9-1.4,2.6-4,3.2-6.3c2.3-9.4,4.7-19.3,11-26.7
		c6.3-7.4,17.9-11.3,26-5.9c5.2,3.4,7.7,9.6,10.8,15s8,10.8,14.2,10.7c0.6,16.8,5.4,33.2,10.1,49.4c1,3.3,1.9,6.5,3.2,9.6
		c3.6,8.6,10.1,16.3,10.8,25.5c0.3,3.7-0.3,7.5,0.9,11c0.9,2.6,2.8,4.8,4.2,7.2c1.7,3.1,2.5,6.5,3.2,10c3.4,15.4,6.5,30.9,9.5,46.5
		c1.8,9.7,3.8,19.9,9.8,27.7c0.7,0.9,1.5,1.9,1.7,3c0.6,3.1-2.9,5.2-5.8,6.5c-2.9,1.3-6.3,3.8-5.2,6.8c0.5,1.3,1.7,2.2,2.6,3.3
		c2.4,3.1,1.5,7.6,0.4,11.4c-1.6,5.6-3.3,11.3-7.1,15.7c-1.2,1.4-3,2.6-4.7,1.9c-0.9-0.4-1.5-1.4-2.1-2.2c-2.6-3.4-7.3-4.7-11.5-4.2
		s-8.2,2.4-12,4.3c-0.4-2.7-0.8-5.4-1.2-8.1c-7.5-1-15.2-0.4-22.4,2c-0.6,4.2,0.4,8.7,2.6,12.3c-6.4,0.6-12.9-2-17.1-6.8
		c-2.8-3.1-4.5-7.1-7.5-10.1c-2.9-3-7.9-4.7-11.3-2.2c-0.8,0.6-1.4,1.3-2.3,1.6c-2.1,0.6-3.8-1.7-5.7-3c-2.4-1.5-5.8-1.2-7.7,0.8
		c-2,2-2.3,5.4-0.8,7.7c2.2,3.3,7.7,5.7,6.1,9.3c-4.9,2.8-11.6,0.6-15.2-3.8c-3.6-4.4-4.7-10.3-4.9-16c-0.2-5.7,0.5-11.4-0.2-17
		c-3.9,0.8-7.5,3.3-9.4,6.9c-5.1-2.8-1.7-10.9-3.9-16.4c-1.1-2.9-3.8-4.9-5.4-7.6c-3.4-5.8-0.9-13.1-1.4-19.7
		c-0.2-3.2-1.5-6.6-4.4-7.9c-2.9-1.2-7.1,1.7-5.8,4.6c-1.4-0.8-2.7-2.4-4.4-2.4L115.4,103.2z"/>
	<path id="Amazonis_Plantia" class="st1" d="M272.6,300.5c5.9-15.2-18.5-26.1-20.1-42.3c-0.8-8.9,5.5-16.7,7.6-25.3
		c5.4-21.8-15.7-40.8-20.3-62.8c-2.7-13.2,0.3-28.4-7.9-39.1c-3.7-4.8-9.1-7.9-13.1-12.4s-6.4-11.7-2.7-16.4
		c4.6,0.2,9.3,0.3,13.9,0.5c-3.3-5.5,0.4-12.7,5.3-16.8c4.9-4.1,11-6.9,14.9-12c5.7-7.5,4.7-18.6-0.6-26.4
		c-5.3-7.8-14.1-12.6-23.1-15.1c-25.2-7.2-55.8,3.4-66.8,27.1c-10,21.6-2.6,46.8,2.4,70.1c4,18.7,6.3,37.8,6.8,57
		c0.6,22.4-1.2,45.1-8,66.4c-2.5,7.8-5.8,15.6-11.5,21.3c-5.8,5.8-14.6,8.3-22.8,8.3v80.1c3.8,0,7.1,2.3,10.1,4.6
		c3,2.3,7.6,4.1,10.3,1.5c1.7-1.6,1.9-4.4,3.6-6c1.7-1.6,4.2-1.7,6.5-1.6c2.8,0,5.6,0,8.4,0.1c1.3,0,2.8,0,3.9,0.6
		c1.2,0.6,2.1,1.8,3.1,2.8c4.8,4.7,12.5,4.4,19.2,3.7c0.7-10.8,5.4-20.8,10-30.6c2-4.2,4-8.4,7.3-11.7c2.8-2.8,6.5-4.7,10.2-6.2
		c6.7-2.7,13.8-2.3,20.3-4.4c7.9-2.6,4.6-1.5,10-5.8c4.1-3.3,4.7-8,10.6-9.9C261,299.4,273.4,298.3,272.6,300.5z"/>
	<path id="Sirenium_Terra" class="st1" d="M211.7,341.8c16.1-28.4-1.4-66.7,13.9-95.6c4.6-8.7,11.9-15.8,18.6-23
		c16.5-17.9,31-40.3,29.2-64.5c13.9-2.7,27-9.3,37.4-18.9c2.3-2.1,4.5-4.5,5.5-7.4c2.3-7.3-4.1-14.6-11.1-18
		c-20.4-9.8-47.7-1.7-65.3-15.9c-15.9-12.9-15.1-36.8-12.8-57.1c-19.1-12.8-45.6-7.6-65.3,4.2s-35.3,29.3-54,42.8
		c-9.3,6.7-20.5,14.8-19.3,26.1c0.5,4.8,3.3,9,5.3,13.4c12.1,26.9-5.2,65.7,18.3,83.9c-12.1,1.7-23.2,9.2-29.1,19.8
		c16.5,0.1,25.4,18.6,30.5,34.2c7.6,23.2,14.4,79.2,34.6,94.4C167.2,374.5,201.2,360.1,211.7,341.8z"/>
	<path id="Arctic_Terra" class="st1" d="M75.3,106.2c7.7-20.9,25.9-36.7,46.3-46.6s42.8-14.5,65.1-19c7-1.4,14.7-2.8,21,0.5
		c4.4,2.3,7.3,6.5,10.2,10.5c12,17.1,25.4,34.7,45,42.4c11.7,4.6,24.5,5.1,36.7,8c12.2,2.9,24.8,8.9,29.9,20.1
		c-16.8-2.4-26.1,18.2-29.5,34.4c-4.6,21.7-9.1,43.4-13.7,65.1c-5.5,26.3-11.1,53.7-4.7,79.9c2.1,8.5,5.4,17.1,4.3,25.8
		c-1.1,8.7-8.9,17.5-17.7,15.7c-8.5-1.7-12.4-11.6-12.3-20.1c0-8.5,2.4-17.1,0-25.3c-4.1-14-21.5-20.8-36.2-18.4
		c-14.7,2.5-27.1,11.7-38.5,21.1c-23.1,18.9-45.1,39.2-65.7,60.7c4.9-18.5-2.8-39.5-18.7-50.7c8.7-3.3,8.5-16.6,17.1-20
		c17.2-6.6,8.1-31.2-0.2-36.9c-17.8-12.1-22.5-3.6-26.1-27.2C81.7,188.9,61.6,143.5,75.3,106.2z"/>
	<path id="Saractic_Terra" class="st1" d="M76.9,238c28.1-23.4,56.2-46.8,84.2-70.1c4.4-3.7,9-7.4,14.5-8.9c3.8-1,7.8-0.9,11.6-1.8
		c10.5-2.3,18.4-11.6,21.9-21.8c3.5-10.2,3.3-21.2,2.8-31.9c-0.6-12.2-1.4-25.1,4.1-35.9c5.6-10.8,17.2,6.2,27.2,13.2
		c9.2,11.2,23.9,1.4,24.7,15.9c1.5,26.4,5.6,49.5,21.4,70.7c23.1,31.2,38.7,67.1,54,102.7c2.1,4.9,4.3,10.4,2.6,15.5
		c-1.7,5.2-7,8.4-11.8,11c-26.3,14.4-53,29-82.3,35.6c-18.8,4.2-38.3,5-57.3,2.1c-20.3-3.2-39.9-10.7-57.1-21.9
		c11.4,2.7,23.4,3.3,35,1.9c-31.2-6.3-57.2-33-62.6-64.4C110.9,256,8.7,294.7,76.9,238z"/>
</g>
<g id="Layer_2">
	<g>
		<rect class="st2" width="400" height="400"/>
	</g>
</g>
</svg>
