<svg xmlns="http://www.w3.org/2000/svg" viewBox="0 0 28.39 45.36"><defs><style>.cls-1{fill:#659D32;}</style></defs><title>eth_offline</title><g id="Layer_2" data-name="Layer 2"><g id="Layer_1-2" data-name="Layer 1"><path class="cls-1" d="M2.48,29.91l10.89,15a1,1,0,0,0,1.65,0l10.89-15a1,1,0,0,0-1.35-1.48l-9.84,5.86a1,1,0,0,1-1.05,0L3.83,28.43A1,1,0,0,0,2.48,29.91Z"/><path class="cls-1" d="M28.23,21.18,15.06.47a1,1,0,0,0-1.72,0L.16,21.18a1,1,0,0,0,.35,1.43l13.18,7.53a1,1,0,0,0,1,0l13.18-7.53A1,1,0,0,0,28.23,21.18Z"/></g></g></svg>